<svg width="25" height="26" viewBox="0 0 25 26" fill="none" xmlns="http://www.w3.org/2000/svg">
<circle opacity="0.1" cx="12.5" cy="13" r="12.5" fill="#25272E"/>
<path opacity="0.4" d="M11.8259 15.497C11.8359 14.9052 11.903 14.4377 12.0273 14.0946C12.1517 13.7514 12.4053 13.3709 12.7882 12.9532L13.7655 11.9461C14.1832 11.4737 14.3921 10.9664 14.3921 10.4243C14.3921 9.90211 14.2553 9.49431 13.9818 9.20089C13.7083 8.90249 13.3104 8.7533 12.7882 8.7533C12.281 8.7533 11.8732 8.88757 11.5648 9.15613C11.2565 9.42468 11.1023 9.78524 11.1023 10.2378H9.72223C9.73218 9.43214 10.0181 8.78314 10.5801 8.29079C11.1471 7.79346 11.8831 7.5448 12.7882 7.5448C13.7282 7.5448 14.4592 7.79843 14.9814 8.3057C15.5086 8.808 15.7722 9.49928 15.7722 10.3795C15.7722 11.2499 15.3693 12.1077 14.5637 12.9532L13.7505 13.7589C13.3875 14.1617 13.206 14.7411 13.206 15.497H11.8259ZM11.7662 17.8618C11.7662 17.638 11.8334 17.4515 11.9676 17.3023C12.1069 17.1481 12.3108 17.071 12.5794 17.071C12.8479 17.071 13.0518 17.1481 13.1911 17.3023C13.3303 17.4515 13.3999 17.638 13.3999 17.8618C13.3999 18.0856 13.3303 18.2721 13.1911 18.4213C13.0518 18.5655 12.8479 18.6376 12.5794 18.6376C12.3108 18.6376 12.1069 18.5655 11.9676 18.4213C11.8334 18.2721 11.7662 18.0856 11.7662 17.8618Z" fill="#25272E"/>
</svg>
