<svg width="391" height="392" viewBox="0 0 391 392" fill="none" xmlns="http://www.w3.org/2000/svg">
<mask id="mask0" mask-type="alpha" maskUnits="userSpaceOnUse" x="0" y="0" width="391" height="392">
<rect y="0.925926" width="391" height="391" rx="8.51852" fill="#EDEDED"/>
<rect y="0.925926" width="391" height="391" rx="8.51852" fill="#78EF65"/>
</mask>
<g mask="url(#mask0)">
<rect y="0.925926" width="391" height="391" rx="8.51852" fill="#EDEDED"/>
<rect y="0.925926" width="391" height="391" rx="8.51852" fill="#78EF65"/>
<rect x="-14.5229" y="0.925926" width="439.037" height="151.931" fill="#A5FFF4"/>
<path d="M416.65 74.6608C459.349 72.7103 487.349 88.0947 496.011 96.0307L416.65 196.426C416.65 196.426 359.441 174.642 205.554 174.642C51.6679 174.642 0 196.426 0 196.426V74.6608C13.1338 70.2148 47.8965 62.1258 81.8768 65.3384C124.352 69.3542 180.241 121.847 244.513 123.854C308.785 125.862 363.276 77.099 416.65 74.6608Z" fill="#61CE4F"/>
</g>
</svg>
