<svg width="651" height="650" viewBox="0 0 651 650" fill="none" xmlns="http://www.w3.org/2000/svg">
<path fill-rule="evenodd" clip-rule="evenodd" d="M278.575 322.605C278.848 296.649 299.619 275.879 325.575 275.605C351.808 275.329 373.299 296.372 373.575 322.605C373.854 349.114 352.083 370.884 325.575 370.605C299.341 370.329 278.299 348.839 278.575 322.605ZM325.575 287.105C305.831 287.242 289.983 302.865 289.575 322.605C289.158 342.761 305.415 359.466 325.575 359.605C345.871 359.745 362.495 342.898 362.075 322.605C361.663 302.725 345.458 286.968 325.575 287.105Z" fill="black"/>
<path fill-rule="evenodd" clip-rule="evenodd" d="M156.575 603.105C333.575 702.105 480.075 612.605 480.075 612.605C480.075 612.605 362.075 634.105 280.075 606.105C198.075 578.105 164.075 528.605 164.075 528.605C164.075 528.605 204.075 559.605 265.075 572.105C326.075 584.605 388.075 582.105 388.075 582.105C388.075 582.105 322.28 570.105 277.075 544.605C231.87 519.105 223.575 487.105 223.575 487.105C223.575 487.105 256.075 511.605 287.575 519.105C319.075 526.605 367.075 528.605 367.075 528.605C367.075 528.605 315.075 516.605 259.575 471.605C204.075 426.605 207.575 386.105 207.575 386.105C207.575 386.105 214.575 399.605 225.575 412.605C236.575 425.605 250.075 434.105 250.075 434.105C250.075 434.105 240.605 411.467 239.575 396.105C238.654 382.379 244 360 244 360C258.743 387.949 292.704 414 326.5 414C361.885 414 392.392 390.115 406.367 360H649.575C649.575 360 650.15 359.5 650.575 324.5C651 289.5 650.575 288.605 650.575 288.605H538.575H407.075C395.075 254.105 358.86 235 326.5 235C291.706 235 259.781 258.193 245.5 287.5C245.5 287.5 6.57481 289.106 2.57481 289.106C-1.42519 289.105 -20.4252 504.106 156.575 603.105ZM326.5 392C358 392 394.5 370 394.5 323C394.5 296.5 373.543 255 326.5 255C281.5 255 258.5 296.5 258.5 323C258.5 368 295 392 326.5 392Z" fill="black"/>
<path fill-rule="evenodd" clip-rule="evenodd" d="M325.575 275.605C299.619 275.879 278.848 296.649 278.575 322.605C278.299 348.839 299.341 370.329 325.575 370.605C352.083 370.884 373.854 349.114 373.575 322.605C373.299 296.372 351.808 275.329 325.575 275.605ZM325.575 287.105C305.831 287.242 289.983 302.865 289.575 322.605C289.158 342.761 305.415 359.466 325.575 359.605C345.871 359.745 362.495 342.898 362.075 322.605C361.663 302.725 345.458 286.968 325.575 287.105Z" fill="black"/>
<path d="M495.5 46.5589C346.501 -52.3356 172 37.0589 172 37.0589C172 37.0589 285 11.9226 372 43.5589C465.5 77.559 488 121.059 488 121.059C488 121.059 448 90.059 387 77.559C326 65.059 264 67.5589 264 67.5589C264 67.5589 329.795 79.5589 375 105.059C420.205 130.559 428.5 162.559 428.5 162.559C428.5 162.559 396 138.059 364.5 130.559C333 123.059 285 121.059 285 121.059C285 121.059 337 133.059 392.5 178.059C448 223.059 444.5 263.559 444.5 263.559C444.5 263.559 437.5 250.059 426.5 237.059C415.5 224.059 402 215.559 402 215.559C402 215.559 410.044 238.244 411.075 253.605C411.762 263.849 408.421 282.668 407.075 289.605H538.575H650.575C650.575 284 644.499 145.453 495.5 46.5589Z" fill="#E41F28"/>
</svg>
