<svg width="100" height="100" viewBox="0 0 100 100" fill="none" xmlns="http://www.w3.org/2000/svg">
<mask id="mask0" mask-type="alpha" maskUnits="userSpaceOnUse" x="0" y="0" width="100" height="100">
<circle cx="50" cy="50" r="50" fill="#C4C4C4"/>
</mask>
<g mask="url(#mask0)">
<path d="M90.1217 79.5076C81.2541 89.613 68.1939 96 53.6306 96C45.0213 96 36.9373 93.7679 29.9343 89.8551C35.8135 92.5664 42.3673 94.08 49.2773 94.08C67.4756 94.08 83.2031 83.5818 90.6454 68.3553C83.5927 80.2992 70.5229 88.32 55.5654 88.32C54.5648 88.32 53.5727 88.2841 52.5903 88.2136C63.7752 87.3687 73.5609 81.5569 79.7123 72.9958C73.0888 80.0607 63.6379 84.48 53.1469 84.48C41.8587 84.48 31.7747 79.3636 25.1213 71.3402C31.1257 77.0978 39.301 80.64 48.3099 80.64C55.4348 80.64 62.0383 78.4244 67.4588 74.6497C62.967 77.2379 57.7476 78.72 52.1795 78.72C48.2755 78.72 44.5429 77.9914 41.1123 76.6639C43.5475 77.3772 46.1255 77.76 48.7936 77.76C58.8889 77.76 67.6943 72.2795 72.3533 64.153C67.9181 69.529 61.1781 72.96 53.6306 72.96C44 72 40.5 67.3553 37.5 62C40.3771 63.3919 44.8938 67 48.3099 67C59.9866 67 66.5 61 68 49.5H21.7418C21.7382 49.5717 21.7348 49.6435 21.7317 49.7154C21.7288 49.6437 21.7262 49.5719 21.7238 49.5H-1C-1 77.3904 21.6096 100 49.5 100C66.1527 100 80.9227 91.9397 90.1217 79.5076Z" fill="black"/>
<path d="M-1 50.5C-1 22.6096 21.6096 0 49.5 0C77.3904 0 100 22.6096 100 50.5H75.5547C75.5649 50.1813 75.5701 49.8612 75.5701 49.54C75.5701 49.1435 75.5622 48.7488 75.5466 48.3561C75.5161 49.0788 75.4562 49.7939 75.3679 50.5H32.5252C32.5146 50.1818 32.5093 49.8618 32.5093 49.54C32.5093 38.1077 40.186 33 51.5 33C53.5529 33 57.9956 36.5331 61.6442 39.4346C63.7099 41.0774 65.5211 42.5178 66.5 43C63.5 29.5 50.7911 26.08 45.5242 26.08C38.4206 26.08 32.0771 29.368 27.9028 34.52C32.2878 26.7322 40.5752 21.48 50.0766 21.48C52.5877 21.48 55.0141 21.8469 57.306 22.5305C54.0773 21.2582 50.5643 20.56 46.8899 20.56C41.6493 20.56 36.7369 21.9803 32.5093 24.4607C37.611 20.8432 43.826 18.72 50.5318 18.72C59.0108 18.72 66.7052 22.1146 72.3564 27.6323C66.0944 19.9432 56.6036 15.04 45.9794 15.04C36.1055 15.04 27.2106 19.2751 20.9766 26.0457C26.7663 17.8413 35.9763 12.2716 46.5032 11.462C45.5786 11.3944 44.6449 11.36 43.7032 11.36C29.6255 11.36 17.3245 19.0466 10.6866 30.4928C17.6912 15.9007 32.4935 5.84 49.6213 5.84C56.1249 5.84 62.2932 7.29053 67.8266 9.88889C61.2355 6.13909 53.627 4 45.5242 4C20.3819 4 -0.5 24.1349 -0.5 49.54C-0.5 49.7069 0.000879407 50.3335 0.00263381 50.5H-1Z" fill="#E41F28"/>
<path d="M66 50C66 58.8366 58.8366 66 50 66C41.1634 66 34 58.8366 34 50C34 41.1634 41.1634 34 50 34C58.8366 34 66 41.1634 66 50Z" fill="white"/>
<path fill-rule="evenodd" clip-rule="evenodd" d="M58 50C58 54.4183 54.4183 58 50 58C45.5817 58 42 54.4183 42 50C42 45.5817 45.5817 42 50 42C54.4183 42 58 45.5817 58 50ZM53 50C53 51.6569 51.6569 53 50 53C48.3431 53 47 51.6569 47 50C47 48.3431 48.3431 47 50 47C51.6569 47 53 48.3431 53 50Z" fill="black"/>
<path fill-rule="evenodd" clip-rule="evenodd" d="M50 68C57.8373 68 64.5048 62.9912 66.9758 56H100V44H66.9758C64.5048 37.0088 57.8373 32 50 32C42.1627 32 35.4953 37.0088 33.0242 44H-1V56H33.0242C35.4953 62.9912 42.1627 68 50 68ZM50 63C57.1797 63 63 57.1797 63 50C63 42.8203 57.1797 37 50 37C42.8203 37 37 42.8203 37 50C37 57.1797 42.8203 63 50 63Z" fill="black"/>
</g>
</svg>
